<mxfile host="app.diagrams.net" modified="2020-11-27T05:37:55.111Z" agent="5.0 (Macintosh; Intel Mac OS X 10_15_7) AppleWebKit/537.36 (KHTML, like Gecko) Chrome/87.0.4280.67 Safari/537.36" etag="E7vM_DMZdhBF04OecjUU" version="13.8.8" type="github">
  <diagram id="-kTHpacPyMNp0dYksAi7" name="Page-1">
    <mxGraphModel dx="1298" dy="833" grid="1" gridSize="10" guides="1" tooltips="1" connect="1" arrows="1" fold="1" page="1" pageScale="1" pageWidth="827" pageHeight="1169" math="0" shadow="0">
      <root>
        <mxCell id="0" />
        <mxCell id="1" parent="0" />
        <mxCell id="l2VvRf9sillcCYVd-7Ah-1" value="Web Server" style="whiteSpace=wrap;html=1;aspect=fixed;" vertex="1" parent="1">
          <mxGeometry x="40" y="40" width="80" height="80" as="geometry" />
        </mxCell>
        <mxCell id="l2VvRf9sillcCYVd-7Ah-2" value="DB" style="shape=cylinder3;whiteSpace=wrap;html=1;boundedLbl=1;backgroundOutline=1;size=15;" vertex="1" parent="1">
          <mxGeometry x="220" y="40" width="60" height="80" as="geometry" />
        </mxCell>
        <mxCell id="l2VvRf9sillcCYVd-7Ah-3" value="request" style="endArrow=classic;html=1;exitX=0.988;exitY=0.338;exitDx=0;exitDy=0;entryX=0;entryY=0;entryDx=0;entryDy=27.5;entryPerimeter=0;exitPerimeter=0;" edge="1" parent="1" source="l2VvRf9sillcCYVd-7Ah-1" target="l2VvRf9sillcCYVd-7Ah-2">
          <mxGeometry width="50" height="50" relative="1" as="geometry">
            <mxPoint x="160" y="105" as="sourcePoint" />
            <mxPoint x="220" y="80" as="targetPoint" />
          </mxGeometry>
        </mxCell>
        <mxCell id="l2VvRf9sillcCYVd-7Ah-4" value="" style="endArrow=classic;html=1;" edge="1" parent="1">
          <mxGeometry width="50" height="50" relative="1" as="geometry">
            <mxPoint x="220" y="100" as="sourcePoint" />
            <mxPoint x="123" y="100" as="targetPoint" />
          </mxGeometry>
        </mxCell>
        <mxCell id="l2VvRf9sillcCYVd-7Ah-5" value="response" style="edgeLabel;html=1;align=center;verticalAlign=middle;resizable=0;points=[];" vertex="1" connectable="0" parent="l2VvRf9sillcCYVd-7Ah-4">
          <mxGeometry x="0.0309" y="1" relative="1" as="geometry">
            <mxPoint as="offset" />
          </mxGeometry>
        </mxCell>
        <mxCell id="l2VvRf9sillcCYVd-7Ah-6" value="Without API" style="text;html=1;align=center;verticalAlign=middle;resizable=0;points=[];autosize=1;" vertex="1" parent="1">
          <mxGeometry x="120" y="10" width="80" height="20" as="geometry" />
        </mxCell>
      </root>
    </mxGraphModel>
  </diagram>
</mxfile>
